<?xml version="1.0" encoding="UTF-8"?>
<svg id="Layer_1" xmlns="http://www.w3.org/2000/svg" version="1.1" viewBox="0 0 32 32">
  <!-- Generator: Adobe Illustrator 29.2.1, SVG Export Plug-In . SVG Version: 2.1.0 Build 116)  -->
  <defs>
    <style>
      .st0 {
        fill: #fff;
        fill-rule: evenodd;
      }
    </style>
  </defs>
  <path class="st0" d="M16.7,15.3c.4.4.4,1,0,1.4,0,0,0,0,0,0l-12,12c-.4.4-1,.4-1.4,0s-.4-1,0-1.4l11.3-11.3L3.3,4.7c-.4-.4-.4-1,0-1.4s1-.4,1.4,0l12,12Z"/>
  <path class="st0" d="M15.1,16.7c-.4-.4-.4-1,0-1.4,0,0,0,0,0,0L27.1,3.3c.4-.4,1-.4,1.4,0s.4,1,0,1.4l-11.3,11.3,11.3,11.3c.4.4.4,1,0,1.4-.4.4-1,.4-1.4,0h0l-12-12Z"/>
</svg>